<?xml version="1.0" encoding="utf-8"?>
<svg xmlns="http://www.w3.org/2000/svg"
	xmlns:xlink="http://www.w3.org/1999/xlink"
	width="83px" height="108px" viewBox="0 0 83 108">
<style type="text/css"><![CDATA[
.style0 {
  font-size: 48px;
  font-family: "Montserrat-UltraLight";
  fill: rgb(255,255,255);
}
]]></style>
<filter filterUnits="objectBoundingBox" x="0.00" y="0.00" width="100.00" height="100.00" id="filter0">
<feFlood flood-color="rgb(199,178,153)" result="coFloodOut1"/>
<feComposite in="coFloodOut1" in2="SourceAlpha" operator="in" result="coOverlay1"/>
<feBlend in="coOverlay1" in2="SourceGraphic" mode="normal" result="colorOverlay1"/>
</filter>
<path fillRule="evenodd" d="M 62.04 42.75C 62.04 43.44 61.49 44 60.81 44 60.81 44 17.23 44 17.23 44 16.55 44 16 43.44 16 42.75 16 42.06 16.55 41.5 17.23 41.5 17.23 41.5 60.81 41.5 60.81 41.5 61.49 41.5 62.04 42.06 62.04 42.75ZM 37.77 22.21C 38.01 22.44 38.31 22.55 38.61 22.55 38.94 22.55 39.27 22.42 39.51 22.15 39.98 21.65 39.95 20.86 39.45 20.38 37.34 18.38 37.79 14.31 39.61 12.01 42.08 8.89 42.62 3.33 39.45 0.34 38.95-0.13 38.17-0.11 37.71 0.4 37.24 0.9 37.27 1.7 37.77 2.17 39.67 3.96 39.63 7.99 37.68 10.45 36.4 12.07 35.64 14.23 35.59 16.4 35.53 18.76 36.3 20.82 37.77 22.21ZM 64 19.61C 64 19.61 64 22.01 64 22.01 64 25.45 61.24 28.25 57.85 28.25 57.85 28.25 55.09 28.25 55.09 28.25 53.22 33.52 48.24 37.3 42.41 37.3 42.41 37.3 35.64 37.3 35.64 37.3 28.21 37.3 22.16 31.18 22.16 23.64 22.16 23.64 22.16 11.23 22.16 11.23 22.16 10.54 22.72 9.98 23.4 9.98 23.4 9.98 31.31 9.98 31.31 9.98 32.92 7.5 32.85 3.85 31.06 2.17 30.56 1.69 30.54 0.9 31 0.4 31.47-0.11 32.25-0.13 32.75 0.34 35.91 3.33 35.37 8.89 32.9 12.01 31.08 14.31 30.63 18.38 32.75 20.38 33.24 20.86 33.27 21.65 32.81 22.15 32.34 22.66 31.56 22.68 31.06 22.21 29.6 20.82 28.82 18.76 28.88 16.4 28.91 15.05 29.22 13.7 29.76 12.48 29.76 12.48 24.63 12.48 24.63 12.48 24.63 12.48 24.63 23.64 24.63 23.64 24.63 29.8 29.57 34.8 35.64 34.8 35.64 34.8 42.41 34.8 42.41 34.8 48.47 34.8 53.41 29.8 53.41 23.64 53.41 23.64 53.41 12.48 53.41 12.48 53.41 12.48 44.13 12.48 44.13 12.48 43.45 12.48 42.9 11.92 42.9 11.23 42.9 10.54 43.45 9.98 44.13 9.98 44.13 9.98 54.65 9.98 54.65 9.98 55.33 9.98 55.88 10.54 55.88 11.23 55.88 11.23 55.88 13.38 55.88 13.38 55.88 13.38 57.85 13.38 57.85 13.38 61.24 13.38 64 16.17 64 19.61ZM 61.53 19.61C 61.53 17.55 59.88 15.88 57.85 15.88 57.85 15.88 55.88 15.88 55.88 15.88 55.88 15.88 55.88 25.75 55.88 25.75 55.88 25.75 57.85 25.75 57.85 25.75 59.88 25.75 61.53 24.07 61.53 22.01 61.53 22.01 61.53 19.61 61.53 19.61Z" fill="rgb(0,0,0)" filter="url(#filter0)"/><text transform="translate(41.00,108.00)" class="style0"><tspan x="-36.93 -12.31 12.31" fill="rgb(255,255,255)">207</tspan></text></svg>