<?xml version="1.0" encoding="utf-8"?>
<svg xmlns="http://www.w3.org/2000/svg"
	xmlns:xlink="http://www.w3.org/1999/xlink"
	width="105px" height="108px" viewBox="0 0 105 108">
<style type="text/css"><![CDATA[
.style0 {
  font-size: 48px;
  font-family: "Montserrat-UltraLight";
  fill: rgb(255,255,255);
}
]]></style>
<filter filterUnits="objectBoundingBox" x="0.00" y="0.00" width="100.00" height="100.00" id="filter0">
<feFlood flood-color="rgb(199,178,153)" result="coFloodOut1"/>
<feComposite in="coFloodOut1" in2="SourceAlpha" operator="in" result="coOverlay1"/>
<feBlend in="coOverlay1" in2="SourceGraphic" mode="normal" result="colorOverlay1"/>
</filter>
<path fillRule="evenodd" d="M 50.94 30.25C 56.63 30.25 61.25 24.62 61.25 17.7 61.25 10.78 56.63 5.16 50.94 5.16 48.12 5.16 45.5 6.5 43.54 8.94 41.66 11.3 40.62 14.41 40.62 17.7 40.62 24.62 45.25 30.25 50.94 30.25ZM 50.94 7.91C 55.11 7.91 58.5 12.3 58.5 17.7 58.5 23.11 55.11 27.5 50.94 27.5 46.77 27.5 43.37 23.11 43.37 17.7 43.37 12.3 46.77 7.91 50.94 7.91ZM 59.6 28.87C 58.84 28.87 58.22 29.49 58.22 30.25 58.22 31.01 58.84 31.62 59.6 31.62 64.3 31.62 68.12 35.45 68.12 40.15 68.12 40.76 67.63 41.25 67.02 41.25 67.02 41.25 34.85 41.25 34.85 41.25 34.24 41.25 33.75 40.76 33.75 40.15 33.75 35.45 37.57 31.62 42.27 31.62 43.03 31.62 43.65 31.01 43.65 30.25 43.65 29.49 43.03 28.87 42.27 28.87 36.06 28.87 31 33.93 31 40.15 31 42.27 32.73 44 34.85 44 34.85 44 67.02 44 67.02 44 69.15 44 70.87 42.27 70.87 40.15 70.87 33.93 65.82 28.87 59.6 28.87ZM 51.94 3.63C 52.93 3.05 53.98 2.75 55.06 2.75 59.23 2.75 62.62 7.15 62.62 12.55 62.62 13.52 62.52 14.47 62.31 15.38 62.13 16.11 62.59 16.85 63.33 17.03 63.43 17.05 63.54 17.06 63.64 17.06 64.27 17.06 64.83 16.64 64.98 16 65.24 14.89 65.37 13.73 65.37 12.55 65.37 5.63 60.75-0 55.06-0 53.5-0 51.94 0.44 50.54 1.26 49.89 1.65 49.67 2.49 50.06 3.14 50.45 3.8 51.29 4.01 51.94 3.63ZM 64 23.37C 63.24 23.37 62.62 23.99 62.62 24.75 62.62 25.51 63.24 26.12 64 26.12 68.7 26.12 72.25 30.04 72.25 34.74 72.25 34.9 72.22 35.05 72.16 35.19 71.85 35.89 72.16 36.7 72.85 37.01 73.03 37.09 73.22 37.12 73.41 37.12 73.94 37.12 74.44 36.82 74.67 36.31 74.89 35.81 75 35.29 75 34.74 75 28.53 70.22 23.37 64 23.37Z" fill="rgb(0,0,0)" filter="url(#filter0)"/><text transform="translate(53.00,108.00)" class="style0"><tspan x="-49.25 -24.62 0.00 24.62" fill="rgb(255,255,255)">3587</tspan></text></svg>