<?xml version="1.0" encoding="utf-8"?>
<svg xmlns="http://www.w3.org/2000/svg"
	xmlns:xlink="http://www.w3.org/1999/xlink"
	width="75px" height="108px" viewBox="0 0 75 108">
<style type="text/css"><![CDATA[
.style0 {
  font-size: 48px;
  font-family: "Montserrat-UltraLight";
  fill: rgb(255,255,255);
}
]]></style>
<filter filterUnits="objectBoundingBox" x="0.00" y="0.00" width="100.00" height="100.00" id="filter0">
<feFlood flood-color="rgb(199,178,153)" result="coFloodOut1"/>
<feComposite in="coFloodOut1" in2="SourceAlpha" operator="in" result="coOverlay1"/>
<feBlend in="coOverlay1" in2="SourceGraphic" mode="normal" result="colorOverlay1"/>
</filter>
<path fillRule="evenodd" d="M 46.25-0C 45.83-0 45.4 0.03 44.98 0.06 44.83 0.08 44.68 0.1 44.52 0.12 44.27 0.15 44.01 0.19 43.76 0.24 43.57 0.27 43.38 0.31 43.2 0.35 42.99 0.4 42.78 0.46 42.57 0.51 42.37 0.57 42.18 0.62 41.98 0.69 41.81 0.74 41.63 0.81 41.46 0.88 41 1.05 40.55 1.24 40.12 1.46 40.03 1.5 39.94 1.54 39.86 1.59 39.63 1.71 39.41 1.84 39.18 1.98 39.06 2.05 38.94 2.12 38.82 2.2 38.6 2.34 38.4 2.48 38.19 2.63 38.13 2.68 38.06 2.72 38 2.76 35.62 0.97 32.73-0 29.75-0 22.17-0 16 6.17 16 13.75 16 26.19 24 37.45 37.41 43.86 37.59 43.95 37.8 44 38 44 38.2 44 38.41 43.95 38.59 43.86 52 37.45 60 26.19 60 13.75 60 6.17 53.83-0 46.25-0ZM 38 41.1C 25.93 35.11 18.75 24.93 18.75 13.75 18.75 7.68 23.68 2.75 29.75 2.75 31.97 2.75 34.12 3.43 35.94 4.68 33.81 7.11 32.5 10.28 32.5 13.75 32.5 14.51 33.11 15.12 33.87 15.12 34.64 15.12 35.25 14.51 35.25 13.75 35.25 10.48 36.7 7.54 38.97 5.52 39.18 5.33 39.4 5.16 39.63 4.99 39.68 4.95 39.73 4.91 39.78 4.87 40 4.71 40.22 4.56 40.45 4.42 40.51 4.38 40.58 4.34 40.64 4.3 40.86 4.17 41.09 4.05 41.32 3.93 41.4 3.89 41.48 3.85 41.56 3.81 41.78 3.71 42.01 3.61 42.23 3.52 42.33 3.48 42.43 3.45 42.54 3.41 42.75 3.33 42.97 3.26 43.18 3.2 43.32 3.16 43.44 3.12 43.58 3.09 43.78 3.04 43.97 2.99 44.17 2.95 44.35 2.92 44.54 2.9 44.72 2.87 44.87 2.85 45.03 2.82 45.19 2.8 45.54 2.77 45.89 2.75 46.25 2.75 52.32 2.75 57.25 7.68 57.25 13.75 57.25 24.93 50.07 35.11 38 41.1ZM 46.25 5.5C 45.49 5.5 44.87 6.12 44.87 6.87 44.87 7.63 45.49 8.25 46.25 8.25 49.28 8.25 51.75 10.72 51.75 13.75 51.75 14.51 52.36 15.12 53.12 15.12 53.88 15.12 54.5 14.51 54.5 13.75 54.5 9.2 50.8 5.5 46.25 5.5Z" fill="rgb(0,0,0)" filter="url(#filter0)"/><text transform="translate(38.00,108.00)" class="style0"><tspan x="-36.93 -12.31 12.31" fill="rgb(255,255,255)">873</tspan></text></svg>