<?xml version="1.0" encoding="utf-8"?>
<svg xmlns="http://www.w3.org/2000/svg"
	xmlns:xlink="http://www.w3.org/1999/xlink"
	width="89px" height="108px" viewBox="0 0 89 108">
<style type="text/css"><![CDATA[
.style0 {
  font-size: 48px;
  font-family: "Montserrat-UltraLight";
  fill: rgb(255,255,255);
}
]]></style>
<filter filterUnits="objectBoundingBox" x="0.00" y="0.00" width="100.00" height="100.00" id="filter0">
<feFlood flood-color="rgb(199,178,153)" result="coFloodOut1"/>
<feComposite in="coFloodOut1" in2="SourceAlpha" operator="in" result="coOverlay1"/>
<feBlend in="coOverlay1" in2="SourceGraphic" mode="normal" result="colorOverlay1"/>
</filter>
<path fillRule="evenodd" d="M 69.31 40.61C 69.31 40.61 18.69 40.61 18.69 40.61 17.76 40.61 17 41.37 17 42.3 17 43.24 17.76 44 18.69 44 18.69 44 69.31 44 69.31 44 70.24 44 71 43.24 71 42.3 71 41.37 70.24 40.61 69.31 40.61ZM 45.69 6.77C 45.69 6.77 45.69 3.39 45.69 3.39 45.69 3.39 49.06 3.39 49.06 3.39 49.99 3.39 50.75 2.63 50.75 1.69 50.75 0.76 49.99 0 49.06 0 49.06 0 38.94 0 38.94 0 38.01 0 37.25 0.76 37.25 1.69 37.25 2.63 38.01 3.39 38.94 3.39 38.94 3.39 42.31 3.39 42.31 3.39 42.31 3.39 42.3 6.91 42.31 6.77 28.19 7.65 17 19.46 17 33.84 17 35.22 17 34.6 17 35.54 17 36.47 17.76 37.23 18.69 37.23 18.69 37.23 69.31 37.23 69.31 37.23 70.24 37.23 71 36.47 71 35.54 71 34.6 71 35.32 71 33.84 71 19.46 59.81 7.65 45.69 6.77ZM 20.38 33.84C 20.38 20.76 30.95 10.16 44 10.16 57.05 10.16 67.62 20.76 67.62 33.84 67.62 33.84 20.38 33.84 20.38 33.84Z" fill="rgb(0,0,0)" filter="url(#filter0)"/><text transform="translate(45.00,108.00)" class="style0"><tspan x="-36.93 -12.31 12.31" fill="rgb(255,255,255)">900</tspan></text></svg>